<mxfile host="app.diagrams.net" modified="2024-06-08T13:36:08.538Z" agent="Mozilla/5.0 (Windows NT 10.0; Win64; x64) AppleWebKit/537.36 (KHTML, like Gecko) Chrome/121.0.0.0 Safari/537.36" version="24.5.2" etag="_00Q4q_Ryz97U-zb7z9j" type="github">
  <diagram name="PÃ¡gina-1" id="lkwwGURr_1iqrhEdCU_s">
    <mxGraphModel>
      <root>
        <mxCell id="0" />
        <mxCell id="1" parent="0" />
      </root>
    </mxGraphModel>
  </diagram>
</mxfile>
